<svg version="1.2" xmlns="http://www.w3.org/2000/svg" viewBox="0 0 1224 338" width="1224" height="338"><defs><linearGradient id="P" gradientUnits="userSpaceOnUse"/><linearGradient id="g1" x2="1" href="#P" gradientTransform="matrix(1066.816,0,0,58.626,87.527,279.102)"><stop offset=".1" stop-color="#4d804d"/><stop offset=".9" stop-color="#295629"/></linearGradient><linearGradient id="g2" x2="1" href="#P" gradientTransform="matrix(1223.8,0,0,230.881,.2,.421)"><stop offset=".1" stop-color="#4d804d"/><stop offset=".9" stop-color="#295629"/></linearGradient></defs><style>.a{fill:url(#g1)}.b{fill:url(#g2)}</style><path fill-rule="evenodd" class="a" d="m87.5 336.5v-56.2h9.1v48.4h17.8v7.8zm76.8 0l-3.1-9h-24.7l-3.2 9h-10.1l21.6-56.2h8.3l21.5 56.2zm-25.6-15.9h20.3l-10.1-32.9zm81.4 15.8l-27.7-41.4v41.4h-9.3v-56.1h9.2l27.4 41.4v-41.4h9.2v56.1zm24.6 0v-56.1h18.2c9 0 15.3 1.1 21.2 6.6 5.3 5.1 8.1 12.4 8.1 21.7 0 8.6-2.7 15.7-8.1 21-5.9 5.8-10.9 6.8-19.1 6.8zm9.2-7.6h9.1c13.4 0 20.1-7 20.1-20.7 0-13-7.3-20.4-20.2-20.4h-9zm67 8.9c-11.6 0-17.6-5.1-18.1-15.6h8.7c0.8 7.3 6.1 8.1 8.5 8.1 5.3 0 8.8-3.2 8.8-8.1 0-6.7-4.5-8.5-9.4-10.5q-1.6-0.6-3.4-1.4-12.2-5.5-12.2-15c0-9.6 7.2-16 18.1-16 8.9 0 14.9 5.1 15.8 13.2h-8.3c-1-3.7-4.1-6-8.3-6-4.4 0-7.7 3.3-7.7 7.6 0 5.5 4.2 7.5 9.7 10.2 1.3 0.6 2.7 1.3 4.3 2.1 7.6 3.9 11 8.4 11 14.6 0 9.4-7.7 16.8-17.5 16.8zm57.4 0c-8.3 0-15.3-3-20.9-8.9-5.3-5.7-8-12.6-8-21 0-7.9 3-14.9 8.5-20.4 5.6-5.5 12.5-8.2 20.5-8.2 12.2 0 22.4 7.2 26.9 18.7h-10.6c-3.9-6-9.5-9.2-16.2-9.2-10.9 0-19.4 8.4-19.4 19.2 0 11.2 8.6 20.4 19.2 20.4 6.3 0 12.1-3.2 15.9-8.9h10.8c-4.5 11.5-14.3 18.3-26.7 18.3zm75-1.2l-3.1-9h-24.7l-3.2 9h-10.1l21.5-56.1h8.3l21.6 56.1zm-25.6-15.9h20.3l-10.1-33zm44.4 16v-56.2h17.7c6.4 0 10.6 0.5 14 2.9 4.8 3.3 7.1 8.2 7.1 15 0 6.8-3.2 12.6-8.5 15.9-3.2 1.9-7.6 2.3-13.7 2.3h-7.3v20.1zm9.4-27.5h5.7c3.5 0 14.2 0 14.2-10.5 0-6.8-4.4-10.2-13-10.2h-6.9zm42.9 27.4v-56h27.8v7.6h-18.5v16.1h18.5v7.8h-18.5v16.8h18.5v7.7zm83.6 1.3c-10.2 0-17.2-6.3-17.2-15.3 0-5.2 2.7-9.3 9.9-14.4l2.5-1.8-1.9-2.5c-3.2-3.9-4.8-7.8-4.8-11.2 0-7.9 5.7-13.4 14-13.4 7.5 0 13.4 5.2 13.4 11.9 0 4.3-2.5 8.8-7.1 12.4l-2.5 2.2 12.2 12.2 5.4-11.7h7.9c-3.1 7.7-5.6 12.4-7.4 15.1l-1.2 2 7.7 7.9-5.3 5.4-7-7.1-2.1 1.9c-4.6 4.4-9.7 6.4-16.5 6.4zm-1.7-26.2c-4.3 2.5-6.8 6-6.8 9.9 0 5.1 4.2 9 9.7 9 3.8 0 6.7-1.7 10-4.4l2.5-2.1-13.4-13.4zm4.4-26.9c-4 0-6.8 3-6.8 7.1 0 3.1 1.7 6.5 4.7 9.2l2 1.9 2.1-2.1c1.9-2 4.5-5.1 4.5-9.4 0-3.9-2.8-6.7-6.5-6.7zm69.3 51.7v-56.1h18.2c9 0 15.4 1.2 21.2 6.7 5.4 5 8.2 12.3 8.2 21.7 0 8.6-2.8 15.7-8.2 20.9-5.9 5.8-10.9 6.8-19.1 6.8zm9.2-7.7h9.1c13.4 0 20.1-6.9 20.1-20.5 0-13.1-7.4-20.5-20.1-20.5h-9.1zm51.6 7.6v-56h27.6v7.7h-18.4v16.1h18.4v7.7h-18.4v16.9h18.4v7.6zm58.8 1.3c-11.7 0-17.6-5.1-18.1-15.7h8.6c0.9 7.4 6.1 8.2 8.6 8.2 5.2 0 8.7-3.2 8.7-8 0-6.7-4.6-8.5-9.4-10.6q-1.6-0.6-3.4-1.4c-8.1-3.7-12.2-8.7-12.2-15 0-9.6 7.3-16 18.1-16 9 0 15 5.2 15.8 13.2h-8.3c-1-3.8-4-6-8.2-6-4.5 0-7.8 3.3-7.8 7.6 0 5.6 4.3 7.6 9.7 10.2 1.2 0.6 2.8 1.3 4.4 2.1 7.6 3.9 10.9 8.5 10.9 14.6 0 9.4-7.6 16.8-17.4 16.8zm40.4-57.3v56h-9.2v-56zm41.9 57.3q-12.4 0-20.8-8.9c-5.4-5.7-8.1-12.6-8.1-21.1 0-7.7 3-14.7 8.6-20.2 5.6-5.5 12.4-8.3 20.5-8.3 10.7 0 20.1 5.8 25.2 15.4h-11.4c-4.3-4.1-8.7-6.1-14-6.1-10.6 0-19.2 8.7-19.2 19.4 0 11.3 8.6 20.4 19.2 20.4 6.9 0 13-3.6 16.5-9.8l2.6-4.5h-19.8v-6.5h29.5q0 0.7 0 1.2c0 6.3-1.5 11.7-4.8 16.4-5.4 7.9-14.4 12.6-24 12.6zm78.8-1.3l-27.6-41.3v41.3h-9.3v-56h9.2l27.2 41.4v-41.4h9.3v56zm50.4 0v-56h9.2v48.4h17.6v7.6zm42 0v-47.5h-11.4v-8.5h32.5v8.5h-11.8v47.5zm31.4 0v-56h18.3c8.9 0 15.3 1.1 21.1 6.6 5.4 5.1 8.2 12.4 8.2 21.8 0 8.5-2.8 15.6-8.1 20.9-6 5.7-10.9 6.7-19.2 6.7zm9.3-7.6h9.1c13.3 0 20-6.9 20-20.5 0-13-7.3-20.5-20.1-20.5h-9zm60.8-0.7v8.4h-8.2v-8.4z"/><path fill-rule="evenodd" class="b" d="m26.2 47.3h61c44 0 71 27 71 79.3 0 53.5-28.2 101.7-97 101.7h-61zm79.8 76.3c0-27-6.8-37-25.6-37h-9.2l-12.5 102.5h6c29.3 0 41.3-21.2 41.3-65.5zm96.5-76.3h51.3l-25.6 181.1h-51.8zm59.6 129.7c0-1.9 0-3.9 0.2-5.9l47.6-6.5c0 1.7-0.3 2.9-0.3 4.8 0 11.9 2.2 23.5 20.3 23.5 9 0 15.4-5 15.4-13.8 0-10.7-6.2-13-23.5-20.2-26.9-10.9-45.2-22.3-45.2-54.1 0-39.7 34-60.7 71.8-60.7 29.2 0 55.8 8.2 55.8 47.2 0 2-0.3 4.2-0.3 6.5l-47.5 5.3v-4c0-12.2-4.3-16.7-13.3-16.7-9 0-14.2 4.9-14.2 13.1 0 5.9 2.7 11.1 15.7 16.3 16.1 6 52 12.5 52 56 0 43-36.3 63.6-72 63.6-23.3 0-62.5-5-62.5-54.4zm479.2-129.7h58.2l24.7 107.8 14.6-107.8h46l-25.7 181h-57.5l-25.6-105.7-14.3 105.7h-46.4v-0.2c-4.1-0.4-8.7-1.2-12.9-0.7-20.5 0.5-39.9 0.4-61-0.1-12.6-0.6-27.1 0.7-39.9 0.8-5.7-0.3-10.5 0.9-15.6-1.1-5 1.4-7.1 0.8-13.2 1.1-13 0.1-26-0.5-39.1-1-2.7 0.4-5.7 1.1-8.2 0.3-2 0.5-5.2 0.7-8.2 0.1-3.3 0-8.3 0.1-13 0.1l-0.2 0.7h-51.7l19.3-137.3h-45.6l6.8-43.7h141.7l-6.7 43.7h-45l-17.7 130q0.7-0.1 1.7-0.4c5.7-2.7 11.9-2.4 18-4.2 8.5-4 16.2-1.3 24.7 0.1 6.6-1.5 13.2 0.5 18.9 2.3 3.7-1.1 5.1-4 8-5.6 2.1 0.2 2.9-0.2 5.7-0.3 3 0.3 7 3.3 10 4.7 1.8 0.4 6.1-1.1 7.7 0.4 1.4-0.2 1.3-0.9 1.7-1.9 0.9-1.3 5.7-3.2 6.4-5.6 2.1-1.7 5.1-2.2 7.6-1 3.4 1.6 3.2-0.3 4.4-2.2 0.6-0.9 3-2.7 3.3-3.4 1.2-2.2 0.7-7.4-2-8.3-1.8 0.3-4.6 6.6-6.8 5.4-2.2-0.3-2.4-2-3.3-2.8-1.1 0.2-3 1.2-4.6 0.1-2.2-0.8-4 3.7-6.9 3.6-4.3-0.9-6.2-5.9-10.4-7-1.8-1.3-1.3-1.4-4-1.2-4.1-0.1-9.3-1.6-13.3-0.8-2 0.9-4.6 2.8-6.5 3.1-1.3 1.6-0.6 1.7-3.9 2.5-4.1 1.7-7.4-1.2-5.6-4.8-2.5-1-1-5.3 2.4-5 2.1 0 1.4-0.4 2.8-1.4 0.4-0.1 2.3-0.8 2.6-1.4-0.3-2.4 0.8-1.9 2.8-2.5 2.7 0.4 11 0.1 8.3-4-2.6 0.4-4.4 2.6-7-0.6-7.6-3.2 2.4-4.6 1.9-7.6-1.9-1.1-6.5 1.9-7.8 1.2-5.4-3 3.2-6.9 6.3-7.5 4.5-6.2 6.8 1.6 8.4-6.8 1.8-2.5 7.8-0.9 9-4.4-1.6-0.2-5 1.7-7.1 0.5-1.9-0.4-2.1 1.3-3.9 1.8-1.1 0-1.4-0.2-2 0.7-1.7 0-2.1 1.1-3.7 1.7-2.2 0-2.4 5.7-4.9 2-2.8-6.4 5.6-10 10.6-11.3 2.9-3.6 7.5-7.1 12.5-6.7 4.5 0.3 2.1-2.2 4.8-4.8 3.8-6-7.4-2.8-8.8-3-0.2-2.8 4.9-5.3 6.4-6.8-0.5 0.1 4.5-1.2 4.2-1.5 1-3.2-2.8-4.6-5.1-4-0.4-0.4-2.3-1.7-2.9-2-2.2-3.4 0.3-8.5-0.3-11.8-1-2.3-3.8-3.6-5.9-3.5-1.6 0.7-2.6 1.8-3.3-0.3 0.1-2.8 0.8-2.5 3.1-4.7 2.5-2 3.5-3.7 6.8-1.9 3.6 1.2 4.9 0.4 7.4 1.1 1 0.5 4.3 3 5.1 2.5 1.8-0.9 1.9-2.6 4.6-1.9 4-0.9 8.4 2.8 9.7-1.7-1.2-5-12.9 0.3-10.9-5.2 1.4-3.6 6.8-2 8-5.2-0.1-2.1 0.1-6.3 1-8.6-0.7-4.4-6.8-14.5 3.2-10.9 3.3 0.4 5.7 5.3 7-1 0.9-2.2 0.3-3.9-0.4-6-0.3 0.2 1.2-7.2 1.3-7.4-1.6-1.4-3.8-4.3-4.7-6.1-0.7 0.2 3.5-2.1 3.8-2 2.4 0 4.7 3.8 7.5 1.6 0.2-0.2 1.6-2.3 2-2.6 0.7-0.6 1.3-0.3 1.4-0.7 0.4-2.5-3.3-2.3-3.7-4.5 0.5-1.2 0.9-3.3 0.9-4.6 1.1-2.4 4.7-2.7 7.2-3.1 2.4-1.6 2.8-5.8 4.3-7.5 0.9-0.7 4.3 0.5 5-0.4 3.2-3.8-1.4-6.5-0.5-10.6 1.1-2.6 5.1-5.6 5.3-9.1-1.2-4.8 6.9-5.1 5.8-0.1-3.7 3.4-1.3 6.2 1.1 9.4-0.1 2.4-0.4 2.7 1.6 4.9 3.2 3.3-0.1 9.1-3.7 10.2-0.5 1.5 0.1 3.8 0.5 6.5 1.3 4-1.8 7.5 0.2 11 2.3 0.5 4.8 2.2 6.1 4.6 2.4 1.8 3.8 3.5 0.7 4.6-0.5 1.3-0.4 1.7-2 2.1-0.9 1.9-2.7 1.5-4.1 1.2-2.5 1.6-0.1 3.2-2.5 5.1-0.7 0.8-2.3 2.9-4.1 3.9-1 0.1-2.4-1.1-3.4 0.2 1.2 2.2-2.6 3.8-1.3 6 3.3 6.9 10.8 2.5 15.6 1.6 1.8-0.5 3.7 0.6 4.9 0.7 2.1-1.2 7.3-3.6 9.3-1.9 4.9 3.4 0.8 3.4-2.6 4.7-1.9 2.1-4.3 3.6-5.5 6.6-1.7 3.1-3.7 4.4-6.1 5.5-4.9 8.8-11.5-4-9.8 2.6 1.4 2 4.8 6.9 5.1 9.2 0.4 0.2 3.9 0.4 5.1 1 3 0.1 7-1.6 10.7-0.5 3 1.3 8.9 4.8 5.7 7.8-3.1 1.1-8.4 2.6-11.7 3.6-4.2-0.9-10.2 2.7-3.8 5.6 3.6 0.7 8.7 2 11.4 5 2.9-0.2 11.8 4.6 12 6.8 0.7 1-0.9 3.3-1.8 4.1 0.1 0.8 0.9 4.8 0.8 6 14.5 5.5-4.3 7.2 4.4 12.7 1.9 3.7-3.7 4.2-5.3 4.9-1.2 1.9-2.1 7.2-5.4 8.7-0.7 0.3-0.8 0.2-2.4 0.5-9.8 1.7 8.2 4.3 5.9 9.9-4.3 5.2 7 6.2 9.2 7.7 2.1 1.8 10.1 8.2 9.9 12.9-2.9 6.8-9.8-1-14-1.1-2.7-0.1-2.2-3.6-4.2-4.4-3.8-1.3-5.2 1.6-6.6 3.9-3 4.2-5.4-0.6-8.1-2.1-2.7 1.4-8.1-0.4-10 2.5-14.9 8.2-13.5-8.9-21.2 0.6-0.5 2.9 2.3 4.1 2.5 7 0.1 1.6-0.5 3.2 0.6 4.7 3.7 1.3 1.9 5.8 2.4 8.1 3.5 0.6 11.6 0.8 15.4 2.4 2.4-1 5.5-0.5 8.3-0.7 3.1 0.7 4.1 0 6.5-0.5 3.1 1.1 5.4 2 8.4-0.6 0.8-1 2.1-0.8 3.2-0.5 3-0.7 6.6-1.4 9.8-1.4 2.3-0.8 2.9-0.9 5.2-0.3 2.4-0.4 1.8-0.6 5.2-0.2 3.6 0.3 6 1.8 9.5 2.2 1.3 0 2 0.1 2.5 0.3zm-112.6 0q0 0.1 0 0 0 0 0 0zm274 106c0-60.9 29.2-109.2 92.2-109.2 38.3 0 60.6 21.7 60.6 62.8 0 2.2-0.3 4.5-0.3 7.2l-47 4.7c0.2-2.7 0.5-5.2 0.5-7.9 0-16.8-6.5-25.6-18.6-25.6-22.2 0-33.5 23.3-33.5 69.8 0 24 6.5 34.8 20.8 34.8 17 0 20.5-14.8 24.5-28.1l46.7 8.6c-7.9 45.8-41.2 61-74.7 61-49.5 0-71.2-30.8-71.2-78.1zm218.2-62.2h-45.5l6.7-43.8h141.9l-6.7 43.8h-45.1l-18.8 137.3h-51.8z"/></svg>