<svg version="1.2" xmlns="http://www.w3.org/2000/svg" viewBox="0 0 1224 360" width="1224" height="360">
	<title>Distinct-Landscape-logo-svg</title>
	<defs>
		<linearGradient id="g1" x2="1" gradientUnits="userSpaceOnUse" gradientTransform="matrix(1044.5,0,0,57.4,89.5,287.8)">
			<stop offset=".1" stop-color="#4d804d"/>
			<stop offset=".9" stop-color="#295629"/>
		</linearGradient>
		<linearGradient id="g2" x2="1" gradientUnits="userSpaceOnUse" gradientTransform="matrix(1198.2,0,0,226.051,13,14.949)">
			<stop offset=".1" stop-color="#4d804d"/>
			<stop offset=".9" stop-color="#295629"/>
		</linearGradient>
	</defs>
	<style>
		.s0 { fill: url(#g1);stroke: #ffffff;paint-order:stroke fill markers;stroke-linejoin: round;stroke-width: 10 } 
		.s1 { fill: url(#g2);stroke: #ffffff;paint-order:stroke fill markers;stroke-linejoin: round;stroke-width: 10 } 
	</style>
	<path id="Path 1" fill-rule="evenodd" class="s0" d="m89.5 344v-55h8.9v47.4h17.4v7.6zm75.2 0l-3-8.8h-24.2l-3.1 8.8h-9.9l21.1-55h8.1l21.1 55zm-25.1-15.6h19.9l-9.9-32.2zm79.7 15.5l-27.1-40.5v40.5h-9.1v-54.9h9l26.8 40.5v-40.5h9v54.9zm24.1 0v-54.9h17.8c8.8 0 15 1 20.8 6.4 5.2 5 7.9 12.2 7.9 21.3 0 8.4-2.6 15.3-7.9 20.5-5.8 5.7-10.7 6.7-18.7 6.7zm9-7.5h8.9c13.1 0 19.7-6.8 19.7-20.2 0-12.7-7.2-20-19.8-20h-8.8zm65.6 8.7c-11.4 0-17.2-5-17.7-15.3h8.5c0.8 7.2 6 8 8.3 8 5.2 0 8.6-3.2 8.6-8 0-6.5-4.4-8.3-9.2-10.2q-1.5-0.6-3.3-1.4-12-5.4-12-14.7c0-9.4 7.1-15.7 17.8-15.7 8.7 0 14.6 5 15.4 13h-8.1c-1-3.7-4-5.9-8.1-5.9-4.3 0-7.6 3.2-7.6 7.4 0 5.4 4.2 7.4 9.5 10 1.3 0.6 2.7 1.3 4.3 2.1 7.4 3.8 10.7 8.2 10.7 14.3 0 9.2-7.5 16.4-17.1 16.4zm56.2 0c-8.1 0-15-2.9-20.5-8.7-5.2-5.6-7.8-12.3-7.8-20.6 0-7.7 2.9-14.5 8.3-19.9 5.5-5.4 12.3-8.1 20.1-8.1 11.9 0 21.9 7.1 26.3 18.4h-10.4c-3.8-5.9-9.3-9.1-15.8-9.1-10.7 0-19 8.3-19 18.8 0 11 8.4 20 18.8 20 6.2 0 11.8-3.1 15.6-8.7h10.5c-4.4 11.3-14 17.9-26.1 17.9zm73.4-1.2l-3-8.8h-24.2l-3.1 8.8h-9.9l21-54.9h8.2l21.1 54.9zm-25.1-15.5h19.9l-9.9-32.3zm43.5 15.6v-55h17.3c6.3 0 10.4 0.5 13.7 2.8 4.7 3.3 7 8.1 7 14.7 0 6.7-3.1 12.4-8.3 15.6-3.2 1.9-7.5 2.3-13.4 2.3h-7.2v19.6zm9.2-26.9h5.6c3.4 0 13.9 0 13.9-10.3 0-6.6-4.3-10-12.7-10h-6.8zm42 26.9v-54.9h27.2v7.5h-18.1v15.7h18.1v7.7h-18.1v16.4h18.1v7.6zm81.9 1.2c-10 0-16.9-6.1-16.9-14.9 0-5.1 2.7-9.1 9.7-14.1l2.5-1.8-1.9-2.4c-3.1-3.9-4.7-7.7-4.7-11 0-7.7 5.6-13.1 13.7-13.1 7.4 0 13.1 5.1 13.1 11.6 0 4.2-2.4 8.6-6.9 12.2l-2.5 2.1 12 12 5.3-11.5h7.7c-3 7.5-5.5 12.1-7.2 14.8l-1.2 1.9 7.5 7.8-5.2 5.3-6.8-7-2.1 1.9c-4.5 4.3-9.5 6.2-16.1 6.2zm-1.7-25.6c-4.2 2.4-6.6 5.9-6.6 9.7 0 5 4.1 8.8 9.5 8.8 3.7 0 6.5-1.7 9.7-4.3l2.5-2.1-13.1-13.1zm4.3-26.3c-3.9 0-6.7 2.9-6.7 6.9 0 3.1 1.7 6.4 4.6 9l2 1.9 2-2.1c1.9-1.9 4.4-5 4.4-9.2 0-3.8-2.7-6.5-6.3-6.5zm67.8 50.6v-54.9h17.9c8.8 0 15 1.1 20.7 6.5 5.3 4.9 8 12.1 8 21.3 0 8.4-2.7 15.3-8 20.4-5.8 5.7-10.7 6.7-18.7 6.7zm9-7.5h8.9c13.1 0 19.7-6.8 19.7-20.1 0-12.8-7.2-20.1-19.7-20.1h-8.9zm50.5 7.5v-54.9h27.1v7.6h-18.1v15.7h18.1v7.6h-18.1v16.5h18.1v7.5zm57.5 1.2c-11.4 0-17.2-5-17.7-15.3h8.4c0.9 7.2 6 8 8.4 8 5.1 0 8.6-3.2 8.6-7.9 0-6.5-4.5-8.3-9.2-10.3q-1.6-0.6-3.4-1.4c-7.9-3.6-11.9-8.5-11.9-14.7 0-9.4 7.1-15.7 17.7-15.7 8.8 0 14.7 5.1 15.5 13h-8.1c-1-3.7-4-5.9-8.1-5.9-4.4 0-7.6 3.2-7.6 7.4 0 5.5 4.2 7.5 9.5 10 1.2 0.6 2.7 1.3 4.3 2.1 7.4 3.8 10.7 8.3 10.7 14.3 0 9.2-7.5 16.4-17.1 16.4zm39.6-56.1v54.9h-9v-54.9zm41 56.1q-12.2 0-20.4-8.7c-5.3-5.6-7.9-12.3-7.9-20.6 0-7.6 2.9-14.4 8.4-19.8 5.5-5.4 12.2-8.2 20.1-8.2 10.5 0 19.7 5.7 24.7 15.1h-11.2c-4.2-4-8.5-5.9-13.7-5.9-10.4 0-18.8 8.5-18.8 18.9 0 11.1 8.4 20 18.8 20 6.8 0 12.7-3.5 16.2-9.6l2.5-4.4h-19.4v-6.3h28.9q0 0.6 0 1.1c0 6.2-1.5 11.5-4.7 16.1-5.3 7.7-14.1 12.3-23.5 12.3zm77.2-1.2l-27.1-40.5v40.5h-9.1v-54.9h9l26.7 40.6v-40.6h9.1v54.9zm49.3 0v-54.9h9v47.4h17.3v7.5zm41.1 0v-46.6h-11.2v-8.3h31.8v8.3h-11.5v46.6zm30.7 0v-54.9h17.9c8.8 0 15 1.1 20.7 6.5 5.3 5 8 12.1 8 21.3 0 8.4-2.7 15.3-7.9 20.5-5.9 5.6-10.7 6.6-18.8 6.6zm9.1-7.5h8.9c13 0 19.6-6.7 19.6-20.1 0-12.7-7.2-20-19.7-20h-8.8zm59.5-0.7v8.2h-8v-8.2z"/>
	<path id="Path 2" fill-rule="evenodd" class="s1" d="m38.5 60.8h59.7c43.1 0 69.5 26.5 69.5 77.7 0 52.4-27.6 99.6-95 99.6h-59.7zm78.1 74.7c0-26.5-6.6-36.3-25-36.3h-9l-12.3 100.4h5.9c28.7 0 40.4-20.8 40.4-64.1zm94.5-74.7h50.2l-25 177.3h-50.7zm58.3 127c0-1.9 0-3.9 0.2-5.8l46.6-6.4c0 1.7-0.3 2.9-0.3 4.7 0 11.7 2.2 23 19.9 23 8.8 0 15.1-4.9 15.1-13.5 0-10.5-6.1-12.7-23-19.8-26.4-10.6-44.3-21.8-44.3-52.9 0-38.9 33.3-59.5 70.3-59.5 28.6 0 54.6 8.1 54.6 46.3 0 1.9-0.3 4.1-0.3 6.3l-46.5 5.2v-3.9c0-12-4.2-16.4-13-16.4-8.8 0-13.9 4.8-13.9 12.9 0 5.7 2.7 10.8 15.4 15.9 15.7 5.9 50.9 12.3 50.9 54.9 0 42.1-35.5 62.2-70.5 62.2-22.8 0-61.2-4.9-61.2-53.2zm469.2-127h57l24.2 105.5 14.2-105.5h45.1l-25.2 177.2h-56.3l-25-103.5-14 103.5h-45.5v-0.2c-4-0.4-8.5-1.2-12.6-0.7-20.1 0.5-39.1 0.4-59.7-0.1-12.4-0.6-26.6 0.7-39.1 0.8-5.6-0.3-10.3 0.9-15.3-1.1-4.9 1.4-6.9 0.8-12.9 1.1-12.7 0.1-25.4-0.5-38.3-1-2.6 0.4-5.5 1.1-8 0.3-2 0.5-5.1 0.7-8 0.1-3.3 0-8.2 0.1-12.8 0.1l-0.1 0.7h-50.7l18.9-134.4h-44.6l6.6-42.8h138.8l-6.6 42.8h-44l-17.4 127.2q0.7-0.1 1.7-0.4c5.6-2.6 11.6-2.3 17.6-4.1 8.3-3.9 15.9-1.2 24.2 0.1 6.5-1.4 12.9 0.5 18.5 2.3 3.6-1.1 5-3.9 7.8-5.5 2.1 0.2 2.9-0.2 5.6-0.3 3 0.3 6.9 3.2 9.8 4.6 1.8 0.4 6-1.1 7.5 0.4 1.4-0.2 1.3-0.9 1.7-1.9 0.9-1.2 5.6-3.1 6.3-5.4 2-1.7 5-2.2 7.4-1 3.3 1.5 3.2-0.3 4.3-2.2 0.6-0.9 3-2.6 3.3-3.3 1.1-2.2 0.6-7.2-2-8.1-1.8 0.3-4.5 6.4-6.7 5.3-2.1-0.3-2.3-2-3.2-2.8-1.1 0.2-2.9 1.2-4.5 0.1-2.1-0.8-3.9 3.6-6.7 3.5-4.3-0.8-6.1-5.7-10.2-6.8-1.8-1.3-1.3-1.4-3.9-1.2-4.1-0.1-9.2-1.6-13.1-0.8-1.9 0.9-4.5 2.8-6.3 3.1-1.3 1.5-0.6 1.6-3.9 2.4-4 1.7-7.2-1.2-5.4-4.7-2.5-1-1-5.2 2.3-4.9 2.1 0 1.4-0.4 2.8-1.4 0.3-0.1 2.2-0.7 2.5-1.3-0.3-2.4 0.8-1.9 2.7-2.5 2.7 0.4 10.8 0.1 8.2-3.9-2.6 0.4-4.3 2.6-6.9-0.6-7.4-3.1 2.4-4.5 1.9-7.4-1.9-1.1-6.4 1.8-7.7 1.2-5.2-3 3.2-6.8 6.2-7.4 4.4-6.1 6.7 1.6 8.2-6.6 1.8-2.5 7.7-0.9 8.8-4.4-1.5-0.1-4.9 1.7-6.9 0.5-1.9-0.4-2.1 1.3-3.8 1.8-1.1 0-1.4-0.2-2 0.7-1.6 0-2 1.1-3.6 1.6-2.2 0-2.4 5.6-4.8 2-2.7-6.3 5.5-9.8 10.4-11.1 2.8-3.5 7.3-6.9 12.2-6.5 4.4 0.3 2.1-2.2 4.7-4.7 3.7-5.9-7.2-2.8-8.6-3-0.2-2.7 4.8-5.1 6.3-6.6-0.5 0.1 4.4-1.2 4.1-1.5 1-3.1-2.8-4.5-5-3.9-0.4-0.4-2.3-1.7-2.9-2-2.1-3.3 0.3-8.3-0.3-11.5-0.9-2.3-3.7-3.5-5.7-3.4-1.6 0.7-2.6 1.7-3.3-0.3 0.1-2.8 0.8-2.5 3.1-4.6 2.4-2 3.4-3.7 6.6-1.9 3.6 1.2 4.8 0.4 7.3 1.1 1 0.5 4.2 2.9 5 2.4 1.7-0.8 1.8-2.5 4.5-1.8 3.9-0.9 8.2 2.7 9.5-1.7-1.2-4.9-12.7 0.3-10.7-5.1 1.4-3.5 6.7-1.9 7.8-5.1-0.1-2 0.1-6.1 1-8.4-0.7-4.3-6.6-14.2 3.1-10.7 3.3 0.4 5.6 5.2 6.9-0.9 0.9-2.2 0.3-3.9-0.4-5.9-0.3 0.2 1.2-7.1 1.3-7.3-1.6-1.3-3.7-4.2-4.6-5.9-0.7 0.2 3.4-2.1 3.7-2 2.4 0 4.6 3.7 7.4 1.6 0.2-0.3 1.6-2.3 1.9-2.6 0.7-0.6 1.3-0.3 1.4-0.7 0.4-2.4-3.3-2.2-3.7-4.4 0.5-1.1 0.9-3.2 0.9-4.5 1.1-2.3 4.6-2.6 7.1-3 2.3-1.6 2.7-5.7 4.2-7.3 0.9-0.7 4.2 0.4 4.9-0.4 3.1-3.8-1.4-6.4-0.5-10.4 1.1-2.6 5-5.5 5.2-8.9-1.2-4.7 6.7-5 5.7-0.1-3.7 3.3-1.3 6 1 9.2-0.1 2.3-0.4 2.6 1.6 4.8 3.1 3.2-0.1 8.9-3.6 10-0.5 1.4 0.1 3.7 0.5 6.3 1.2 3.9-1.8 7.4 0.2 10.8 2.2 0.5 4.7 2.2 5.9 4.5 2.4 1.8 3.8 3.4 0.7 4.5-0.5 1.3-0.4 1.7-1.9 2.1-0.9 1.8-2.7 1.4-4 1.1-2.5 1.6-0.1 3.2-2.5 5-0.7 0.8-2.2 2.9-4 3.8-1 0.1-2.4-1-3.3 0.2 1.1 2.2-2.6 3.8-1.3 5.9 3.2 6.8 10.6 2.5 15.3 1.6 1.7-0.5 3.6 0.6 4.8 0.7 2-1.2 7.1-3.6 9.1-1.9 4.8 3.3 0.8 3.3-2.6 4.6-1.8 2.1-4.2 3.5-5.4 6.5-1.6 3-3.6 4.3-5.9 5.4-4.8 8.6-11.3-4-9.6 2.5 1.3 2 4.7 6.8 5 9 0.4 0.2 3.8 0.4 5 1 2.9 0.1 6.8-1.6 10.4-0.5 3 1.3 8.7 4.7 5.6 7.6-3 1.1-8.2 2.6-11.4 3.6-4.2-0.9-10 2.6-3.8 5.4 3.6 0.7 8.6 2 11.2 4.9 2.8-0.2 11.6 4.5 11.7 6.7 0.7 1-0.8 3.2-1.7 4 0.1 0.8 0.9 4.7 0.8 5.9 14.2 5.4-4.2 7 4.3 12.4 1.8 3.6-3.6 4.1-5.2 4.8-1.2 1.9-2.1 7.1-5.3 8.5-0.7 0.3-0.8 0.2-2.3 0.5-9.6 1.7 8 4.2 5.7 9.7-4.2 5.1 6.9 6.1 9 7.6 2.1 1.7 9.9 8 9.7 12.6-2.8 6.6-9.6-1-13.7-1.1-2.6-0.1-2.1-3.5-4.1-4.3-3.7-1.3-5.1 1.6-6.5 3.8-2.9 4.1-5.2-0.6-7.9-2-2.6 1.3-7.9-0.4-9.8 2.4-14.6 8-13.2-8.7-20.7 0.6-0.5 2.8 2.2 4 2.4 6.9 0.1 1.5-0.5 3.1 0.6 4.6 3.6 1.2 1.9 5.6 2.4 7.9 3.4 0.6 11.3 0.8 15 2.3 2.4-0.9 5.4-0.5 8.2-0.6 3 0.6 4 0 6.3-0.5 3.1 1 5.3 1.9 8.2-0.6 0.8-1 2.1-0.8 3.2-0.5 2.9-0.7 6.4-1.4 9.6-1.4 2.2-0.8 2.8-0.9 5.1-0.3 2.3-0.4 1.7-0.6 5.1-0.2 3.5 0.3 5.8 1.8 9.3 2.2 1.2 0 1.9 0.1 2.4 0.3zm-110.2 0q-0.1 0.1 0 0 0 0 0 0zm268.2 103.8c0-59.7 28.6-107 90.3-107 37.5 0 59.3 21.3 59.3 61.5 0 2.2-0.3 4.4-0.3 7.1l-46 4.6c0.2-2.7 0.5-5.1 0.5-7.8 0-16.4-6.4-25-18.2-25-21.7 0-32.8 22.8-32.8 68.3 0 23.5 6.4 34.1 20.4 34.1 16.6 0 20-14.5 24-27.5l45.7 8.4c-7.8 44.8-40.4 59.7-73.2 59.7-48.4 0-69.7-30.1-69.7-76.4zm213.7-60.9h-44.6l6.6-42.9h138.9l-6.6 42.9h-44.1l-18.4 134.4h-50.7z"/>
</svg>